<mxfile host="app.diagrams.net" modified="2022-06-15T05:49:15.189Z" agent="5.0 (Windows NT 10.0; Win64; x64) AppleWebKit/537.36 (KHTML, like Gecko) Chrome/102.0.0.0 Safari/537.36" etag="gBfwpkrgB5fg-PwsUKBx" version="20.0.1" type="github">
  <diagram id="pnSq_1IhxVE68YEBTWZQ" name="Page-1">
    <mxGraphModel dx="716" dy="366" grid="1" gridSize="10" guides="1" tooltips="1" connect="1" arrows="1" fold="1" page="1" pageScale="1" pageWidth="827" pageHeight="1169" math="0" shadow="0">
      <root>
        <mxCell id="0" />
        <mxCell id="1" parent="0" />
        <mxCell id="lQlo6ACK6iJCIDcUo_zY-33" style="edgeStyle=orthogonalEdgeStyle;rounded=0;orthogonalLoop=1;jettySize=auto;html=1;exitX=0.5;exitY=1;exitDx=0;exitDy=0;entryX=0.5;entryY=0;entryDx=0;entryDy=0;fontColor=#000000;fillColor=#a20025;strokeColor=#6F0000;dashed=1;" edge="1" parent="1" source="lQlo6ACK6iJCIDcUo_zY-23" target="lQlo6ACK6iJCIDcUo_zY-30">
          <mxGeometry relative="1" as="geometry" />
        </mxCell>
        <mxCell id="lQlo6ACK6iJCIDcUo_zY-23" value="a0" style="rounded=0;whiteSpace=wrap;html=1;fontColor=#000000;strokeColor=#000000;fillColor=#FFFFFF;" vertex="1" parent="1">
          <mxGeometry x="140" y="90" width="120" height="30" as="geometry" />
        </mxCell>
        <mxCell id="lQlo6ACK6iJCIDcUo_zY-28" value="b0" style="rounded=0;whiteSpace=wrap;html=1;fontColor=#000000;strokeColor=#000000;fillColor=#FFFFFF;" vertex="1" parent="1">
          <mxGeometry x="260" y="90" width="120" height="30" as="geometry" />
        </mxCell>
        <mxCell id="lQlo6ACK6iJCIDcUo_zY-29" value="c0" style="rounded=0;whiteSpace=wrap;html=1;fontColor=#000000;strokeColor=#000000;fillColor=#FFFFFF;" vertex="1" parent="1">
          <mxGeometry x="380" y="90" width="120" height="30" as="geometry" />
        </mxCell>
        <mxCell id="lQlo6ACK6iJCIDcUo_zY-30" value="a1" style="rounded=0;whiteSpace=wrap;html=1;fontColor=#000000;strokeColor=#000000;fillColor=#FFFFFF;" vertex="1" parent="1">
          <mxGeometry x="140" y="150" width="120" height="30" as="geometry" />
        </mxCell>
        <mxCell id="lQlo6ACK6iJCIDcUo_zY-37" style="edgeStyle=orthogonalEdgeStyle;rounded=0;orthogonalLoop=1;jettySize=auto;html=1;exitX=0.5;exitY=1;exitDx=0;exitDy=0;entryX=0.5;entryY=0;entryDx=0;entryDy=0;fontColor=#000000;fillColor=#a20025;strokeColor=#6F0000;dashed=1;" edge="1" parent="1" source="lQlo6ACK6iJCIDcUo_zY-31" target="lQlo6ACK6iJCIDcUo_zY-35">
          <mxGeometry relative="1" as="geometry" />
        </mxCell>
        <mxCell id="lQlo6ACK6iJCIDcUo_zY-31" value="b1" style="rounded=0;whiteSpace=wrap;html=1;fontColor=#000000;strokeColor=#000000;fillColor=#FFFFFF;" vertex="1" parent="1">
          <mxGeometry x="260" y="150" width="120" height="30" as="geometry" />
        </mxCell>
        <mxCell id="lQlo6ACK6iJCIDcUo_zY-32" value="c1" style="rounded=0;whiteSpace=wrap;html=1;fontColor=#000000;strokeColor=#000000;fillColor=#FFFFFF;" vertex="1" parent="1">
          <mxGeometry x="380" y="150" width="120" height="30" as="geometry" />
        </mxCell>
        <mxCell id="lQlo6ACK6iJCIDcUo_zY-34" value="a2" style="rounded=0;whiteSpace=wrap;html=1;fontColor=#000000;strokeColor=#000000;fillColor=#FFFFFF;" vertex="1" parent="1">
          <mxGeometry x="140" y="210" width="120" height="30" as="geometry" />
        </mxCell>
        <mxCell id="lQlo6ACK6iJCIDcUo_zY-35" value="b2" style="rounded=0;whiteSpace=wrap;html=1;fontColor=#000000;strokeColor=#000000;fillColor=#FFFFFF;" vertex="1" parent="1">
          <mxGeometry x="260" y="210" width="120" height="30" as="geometry" />
        </mxCell>
        <mxCell id="lQlo6ACK6iJCIDcUo_zY-62" style="edgeStyle=orthogonalEdgeStyle;rounded=0;orthogonalLoop=1;jettySize=auto;html=1;exitX=0.5;exitY=1;exitDx=0;exitDy=0;entryX=0.5;entryY=0;entryDx=0;entryDy=0;fontColor=#000000;fillColor=#a20025;strokeColor=#6F0000;dashed=1;" edge="1" parent="1" source="lQlo6ACK6iJCIDcUo_zY-36" target="lQlo6ACK6iJCIDcUo_zY-29">
          <mxGeometry relative="1" as="geometry">
            <Array as="points">
              <mxPoint x="440" y="260" />
              <mxPoint x="520" y="260" />
              <mxPoint x="520" y="70" />
              <mxPoint x="440" y="70" />
            </Array>
          </mxGeometry>
        </mxCell>
        <mxCell id="lQlo6ACK6iJCIDcUo_zY-36" value="c2" style="rounded=0;whiteSpace=wrap;html=1;fontColor=#000000;strokeColor=#000000;fillColor=#FFFFFF;" vertex="1" parent="1">
          <mxGeometry x="380" y="210" width="120" height="30" as="geometry" />
        </mxCell>
        <mxCell id="lQlo6ACK6iJCIDcUo_zY-39" value="a0" style="rounded=0;whiteSpace=wrap;html=1;fontColor=#000000;strokeColor=#000000;fillColor=#FFFFFF;" vertex="1" parent="1">
          <mxGeometry x="620" y="90" width="120" height="30" as="geometry" />
        </mxCell>
        <mxCell id="lQlo6ACK6iJCIDcUo_zY-40" value="b0" style="rounded=0;whiteSpace=wrap;html=1;fontColor=#000000;strokeColor=#000000;fillColor=#FFFFFF;" vertex="1" parent="1">
          <mxGeometry x="740" y="90" width="120" height="30" as="geometry" />
        </mxCell>
        <mxCell id="lQlo6ACK6iJCIDcUo_zY-41" value="c0+c2" style="rounded=0;whiteSpace=wrap;html=1;fontColor=#000000;strokeColor=#000000;fillColor=#FFFFFF;" vertex="1" parent="1">
          <mxGeometry x="860" y="90" width="120" height="30" as="geometry" />
        </mxCell>
        <mxCell id="lQlo6ACK6iJCIDcUo_zY-48" style="edgeStyle=orthogonalEdgeStyle;rounded=0;orthogonalLoop=1;jettySize=auto;html=1;exitX=0.5;exitY=1;exitDx=0;exitDy=0;entryX=0.5;entryY=0;entryDx=0;entryDy=0;fontColor=#000000;" edge="1" parent="1" source="lQlo6ACK6iJCIDcUo_zY-42" target="lQlo6ACK6iJCIDcUo_zY-45">
          <mxGeometry relative="1" as="geometry" />
        </mxCell>
        <mxCell id="lQlo6ACK6iJCIDcUo_zY-42" value="a0+a1" style="rounded=0;whiteSpace=wrap;html=1;fontColor=#000000;strokeColor=#000000;fillColor=#FFFFFF;" vertex="1" parent="1">
          <mxGeometry x="620" y="150" width="120" height="30" as="geometry" />
        </mxCell>
        <mxCell id="lQlo6ACK6iJCIDcUo_zY-43" value="b1" style="rounded=0;whiteSpace=wrap;html=1;fontColor=#000000;strokeColor=#000000;fillColor=#FFFFFF;" vertex="1" parent="1">
          <mxGeometry x="740" y="150" width="120" height="30" as="geometry" />
        </mxCell>
        <mxCell id="lQlo6ACK6iJCIDcUo_zY-44" value="c1" style="rounded=0;whiteSpace=wrap;html=1;fontColor=#000000;strokeColor=#000000;fillColor=#FFFFFF;" vertex="1" parent="1">
          <mxGeometry x="860" y="150" width="120" height="30" as="geometry" />
        </mxCell>
        <mxCell id="lQlo6ACK6iJCIDcUo_zY-45" value="a2" style="rounded=0;whiteSpace=wrap;html=1;fontColor=#000000;strokeColor=#000000;fillColor=#FFFFFF;" vertex="1" parent="1">
          <mxGeometry x="620" y="210" width="120" height="30" as="geometry" />
        </mxCell>
        <mxCell id="lQlo6ACK6iJCIDcUo_zY-46" value="b1+b2" style="rounded=0;whiteSpace=wrap;html=1;fontColor=#000000;strokeColor=#000000;fillColor=#FFFFFF;" vertex="1" parent="1">
          <mxGeometry x="740" y="210" width="120" height="30" as="geometry" />
        </mxCell>
        <mxCell id="lQlo6ACK6iJCIDcUo_zY-47" value="c2" style="rounded=0;whiteSpace=wrap;html=1;fontColor=#000000;strokeColor=#000000;fillColor=#FFFFFF;" vertex="1" parent="1">
          <mxGeometry x="860" y="210" width="120" height="30" as="geometry" />
        </mxCell>
        <mxCell id="lQlo6ACK6iJCIDcUo_zY-63" value="1" style="text;html=1;strokeColor=none;fillColor=none;align=center;verticalAlign=middle;whiteSpace=wrap;rounded=0;fontColor=#000000;" vertex="1" parent="1">
          <mxGeometry x="150" y="120" width="60" height="30" as="geometry" />
        </mxCell>
        <mxCell id="lQlo6ACK6iJCIDcUo_zY-64" value="1" style="text;html=1;strokeColor=none;fillColor=none;align=center;verticalAlign=middle;whiteSpace=wrap;rounded=0;fontColor=#000000;" vertex="1" parent="1">
          <mxGeometry x="270" y="180" width="60" height="30" as="geometry" />
        </mxCell>
        <mxCell id="lQlo6ACK6iJCIDcUo_zY-65" value="1" style="text;html=1;strokeColor=none;fillColor=none;align=center;verticalAlign=middle;whiteSpace=wrap;rounded=0;fontColor=#000000;" vertex="1" parent="1">
          <mxGeometry x="470" y="180" width="60" height="30" as="geometry" />
        </mxCell>
      </root>
    </mxGraphModel>
  </diagram>
</mxfile>
